0.11m3min_grf.mot
version=1
nRows=25
nColumns 19
inDegrees=yes
endheader
time	1_ground_force_vx	1_ground_force_vy	1_ground_force_vz	1_ground_force_px	1_ground_force_py	1_ground_force_pz	1_ground_torque_x	1_ground_torque_y	1_ground_torque_z	2_ground_force_vx	2_ground_force_vy	2_ground_force_vz	2_ground_force_px	2_ground_force_py	2_ground_force_pz	2_ground_torque_x	2_ground_torque_y	2_ground_torque_z
            1.253500	           -0.136246	            1.079012	            0.601106	           -0.233013	            0.005581	           -0.255695	           -0.082634	            0.018751	           -0.080810	            0.466882	            0.372331	           -0.655879	           -0.232311	            0.006130	           -0.833667	           -0.075200	            0.009383	           -0.056485
            1.254000	           -0.136849	            1.260260	            0.372599	           -0.233013	            0.005581	           -0.255695	           -0.016618	            0.055649	           -0.062024	            0.468170	            0.004370	           -0.751049	           -0.232311	            0.006130	           -0.833667	            0.000053	           -0.027955	           -0.113202
            1.254500	            0.092708	            1.259715	            0.509598	           -0.233013	            0.005581	           -0.255695	           -0.041126	           -0.009110	           -0.014870	            0.137021	            0.922923	           -0.466056	           -0.232311	            0.006130	           -0.833667	           -0.056338	           -0.009522	           -0.037710
            1.255000	            0.230401	            0.358413	            0.505392	           -0.233013	            0.005581	           -0.255695	           -0.078023	           -0.046109	            0.009757	            0.092042	            0.371313	           -0.749575	           -0.232311	            0.006130	           -0.833667	           -0.093900	           -0.018908	           -0.094279
            1.255500	            0.093229	            0.898397	            0.691476	           -0.233013	            0.005581	           -0.255695	            0.007606	           -0.036825	           -0.015097	            0.044712	            0.553786	           -0.326545	           -0.232311	            0.006130	           -0.833667	           -0.037408	           -0.047332	           -0.019003
            1.256000	           -0.044773	            1.620023	            0.557341	           -0.233013	            0.005581	           -0.255695	            0.012900	           -0.036731	           -0.058596	            0.092144	            0.370476	           -0.514935	           -0.232311	            0.006130	           -0.833667	           -0.074920	           -0.057122	            0.037530
            1.256500	            0.046997	            0.538643	            0.506620	           -0.233013	            0.005581	           -0.255695	            0.015682	            0.064746	            0.002174	            0.375258	           -0.181121	           -0.470097	           -0.232311	            0.006130	           -0.833667	           -0.018572	           -0.056851	            0.018656
            1.257000	            0.184735	            1.259143	            0.646938	           -0.233013	            0.005581	           -0.255695	            0.084415	            0.027934	           -0.011114	            0.233400	            0.186500	           -0.421795	           -0.232311	            0.006130	           -0.833667	           -0.112711	           -0.009591	           -0.075387
            1.257500	            0.046523	            1.260296	            0.372144	           -0.233013	            0.005581	           -0.255695	            0.020949	            0.037254	           -0.054377	            0.090856	            0.738438	           -0.419765	           -0.232311	            0.006130	           -0.833667	           -0.056415	            0.009451	           -0.056493
            1.258000	            0.092450	            0.178907	            0.321537	           -0.233013	            0.005581	           -0.255695	            0.042437	           -0.036751	           -0.033956	           -0.048446	            0.370303	           -0.608731	           -0.232311	            0.006130	           -0.833667	           -0.131633	            0.028152	           -0.075244
            1.258500	           -0.182317	            1.079396	            0.509508	           -0.233013	            0.005581	           -0.255695	            0.127772	           -0.027449	           -0.083485	            0.233338	            0.187003	           -0.562580	           -0.232311	            0.006130	           -0.833667	           -0.093808	           -0.028832	            0.037639
            1.259000	           -0.090209	            1.258893	            0.693477	           -0.233013	            0.005581	           -0.255695	           -0.067882	            0.009535	           -0.078937	            0.470267	           -0.548912	           -0.518380	           -0.232311	            0.006130	           -0.833667	           -0.056467	            0.028222	           -0.018725
            1.259500	            0.322396	            0.538107	            0.643505	           -0.233013	            0.005581	           -0.255695	           -0.009142	           -0.036402	           -0.080460	           -0.093988	            0.002005	           -0.656954	           -0.232311	            0.006130	           -0.833667	           -0.056287	           -0.028293	           -0.075478
            1.260000	            0.047158	            0.898781	            0.599878	           -0.233013	            0.005581	           -0.255695	            0.011408	            0.018773	           -0.054419	            0.139015	            0.370478	           -0.468027	           -0.232311	            0.006130	           -0.833667	            0.018923	           -0.046927	           -0.075577
            1.260500	            0.092807	            0.718918	            0.507279	           -0.233013	            0.005581	           -0.255695	           -0.022202	            0.037433	           -0.089891	            0.095467	           -0.550266	           -0.518220	           -0.232311	            0.006130	           -0.833667	           -0.131600	            0.027883	            0.000157
            1.261000	            0.046475	            0.899961	            0.324742	           -0.233013	            0.005581	           -0.255695	            0.079502	            0.018696	           -0.035791	            0.231447	            0.738611	           -0.325968	           -0.232311	            0.006130	           -0.833667	           -0.075200	            0.009383	           -0.056485
            1.261500	           -0.044414	            0.898567	            0.645961	           -0.233013	            0.005581	           -0.255695	           -0.009383	            0.055783	           -0.076917	            0.562699	           -0.180779	           -0.376321	           -0.232311	            0.006130	           -0.833667	            0.018905	           -0.037609	           -0.037843
            1.262000	            0.046296	            1.260689	            0.280432	           -0.233013	            0.005581	           -0.255695	            0.043505	           -0.036451	           -0.111143	            0.516534	           -0.365264	           -0.330030	           -0.232311	            0.006130	           -0.833667	           -0.169102	            0.008842	            0.000106
            1.262500	           -0.227510	            1.258473	            0.785530	           -0.233013	            0.005581	           -0.255695	            0.003479	           -0.055537	           -0.010065	           -0.002967	            0.739104	           -0.701293	           -0.232311	            0.006130	           -0.833667	           -0.018734	           -0.018839	           -0.037760
            1.263000	            0.230156	            1.079672	            0.462628	           -0.233013	            0.005581	           -0.255695	            0.073500	           -0.018109	           -0.046919	           -0.144764	            1.106224	           -0.512207	           -0.232311	            0.006130	           -0.833667	           -0.018614	           -0.056515	           -0.075595
            1.263500	            0.138925	            1.078868	            0.646279	           -0.233013	            0.005581	           -0.255695	           -0.009422	            0.000326	           -0.050544	            0.140385	            0.001846	           -0.375485	           -0.232311	            0.006130	           -0.833667	           -0.018649	           -0.037879	           -0.000127
            1.264000	            0.184280	            1.259929	            0.463515	           -0.233013	            0.005581	           -0.255695	            0.073476	           -0.036778	           -0.011364	            0.184535	            0.738944	           -0.466732	           -0.232311	            0.006130	           -0.833667	           -0.056297	           -0.009858	            0.056541
            1.264500	           -0.044884	            0.358753	            0.414363	           -0.233013	            0.005581	           -0.255695	            0.094842	            0.018418	            0.016674	            0.231344	            0.739448	           -0.560609	           -0.232311	            0.006130	           -0.833667	           -0.037332	           -0.066305	           -0.000220
            1.265000	            0.138569	            0.538858	            0.460537	           -0.233013	            0.005581	           -0.255695	            0.036242	            0.009652	           -0.069396	            0.418703	            0.740459	           -0.654545	           -0.232311	            0.006130	           -0.833667	            0.056271	            0.019243	           -0.037657
            1.265500	            0.000809	            1.800691	            0.466289	           -0.233013	            0.005581	           -0.255695	            0.016696	           -0.018225	           -0.056578	            0.189832	           -0.734076	           -0.518917	           -0.232311	            0.006130	           -0.833667	            0.056398	           -0.009316	            0.018793
